<svg width="40" height="40" viewBox="0 0 40 40" fill="none" xmlns="http://www.w3.org/2000/svg">
<circle cx="20" cy="20" r="20" fill="white"/>
<path d="M10 0H1.81818C0.818182 0 0 0.818182 0 1.81818V9.09091C0 10.0909 0.818182 10.9091 1.81818 10.9091H10C11 10.9091 11.8182 10.0909 11.8182 9.09091V1.81818C11.8182 0.818182 11 0 10 0ZM1.81818 8.18182L3.54545 5.45455L4.54545 7.18182L6.90909 3.36364L10 8.18182H1.81818Z" transform="translate(18.1818 10.9091)" fill="#130B2D"/>
<path d="M1.81818 0H0V10C0 11 0.818182 11.8182 1.81818 11.8182H10.9091V10H1.81818V0Z" transform="translate(14.5455 13.6364)" fill="#130B2D"/>
<path d="M1.81818 0H0V10C0 11 0.818182 11.8182 1.81818 11.8182H10.9091V10H1.81818V0Z" transform="translate(10.9091 17.2727)" fill="#130B2D"/>
</svg>
